<?xml version="1.0" standalone="no"?>
<!DOCTYPE svg PUBLIC "-//W3C//DTD SVG 20010904//EN"
 "http://www.w3.org/TR/2001/REC-SVG-20010904/DTD/svg10.dtd">
<svg version="1.0" xmlns="http://www.w3.org/2000/svg"
 width="225.000000pt" height="225.000000pt" viewBox="0 0 225.000000 225.000000"
 preserveAspectRatio="xMidYMid meet">
<metadata>
Created by potrace 1.14, written by Peter Selinger 2001-2017
</metadata>
<g transform="translate(0.000000,225.000000) scale(0.100000,-0.100000)"
fill="#000000" stroke="none">
<path d="M1035 1909 c-2 -8 -6 -346 -7 -752 l-3 -737 371 0 370 0 31 33 c155
165 240 458 204 705 -53 362 -332 663 -686 738 -107 23 -273 31 -280 13z m230
-79 c17 -4 -5 -5 -50 -2 -44 2 -82 6 -84 8 -8 7 104 2 134 -6z m62 -16 c-3 -3
-12 -4 -19 -1 -8 3 -5 6 6 6 11 1 17 -2 13 -5z m68 -19 c39 -17 21 -18 -25 0
-19 7 -28 14 -20 14 8 0 29 -6 45 -14z m93 -39 c26 -14 56 -32 67 -40 11 -9
-11 0 -50 20 -77 41 -82 44 -71 44 4 0 28 -11 54 -24z m163 -113 c8 -9 -5 -2
-28 17 -24 18 -43 35 -43 37 0 7 56 -35 71 -54z m75 -70 c27 -31 44 -54 37
-50 -14 9 -97 107 -90 107 2 0 26 -26 53 -57z m92 -122 c33 -58 21 -51 -17 11
-18 28 -26 47 -19 40 8 -6 24 -29 36 -51z m61 -126 c0 -5 -6 1 -14 15 -8 14
-14 30 -14 35 0 6 6 -1 14 -15 8 -14 14 -29 14 -35z m20 -55 c0 -10 -3 -8 -9
5 -12 27 -12 43 0 25 5 -8 9 -22 9 -30z m19 -75 c0 -16 -2 -15 -8 5 -11 34
-11 60 0 35 5 -11 8 -29 8 -40z m9 -92 c-2 -16 -4 -5 -4 22 0 28 2 40 4 28 2
-13 2 -35 0 -50z m10 -85 c-2 -13 -4 -5 -4 17 -1 22 1 32 4 23 2 -10 2 -28 0
-40z m-10 -100 c-2 -13 -4 -3 -4 22 0 25 2 35 4 23 2 -13 2 -33 0 -45z m-10
-60 c-3 -8 -6 -5 -6 6 -1 11 2 17 5 13 3 -3 4 -12 1 -19z m-13 -52 c-3 -15 -8
-25 -11 -23 -2 3 -1 17 3 31 3 15 8 25 11 23 2 -3 1 -17 -3 -31z m-53 -135
c-17 -34 -33 -61 -36 -61 -3 0 10 29 27 65 18 35 34 63 36 61 2 -2 -11 -31
-27 -65z m-61 -101 c-12 -16 -24 -30 -26 -30 -3 0 4 14 16 30 12 17 24 30 26
30 3 0 -4 -13 -16 -30z"/>
<path d="M566 1721 c-45 -36 -133 -134 -174 -193 -206 -301 -201 -713 13
-1013 46 -64 176 -195 194 -195 8 0 11 203 11 715 0 393 -2 715 -4 715 -2 0
-20 -13 -40 -29z m-70 -189 c-17 -16 -18 -16 -5 5 7 12 15 20 18 17 3 -2 -3
-12 -13 -22z m-48 -72 c-32 -51 -48 -68 -27 -27 15 28 49 77 54 77 2 0 -10
-22 -27 -50z m-62 -117 c-8 -15 -15 -25 -16 -21 0 12 23 58 27 54 3 -2 -2 -17
-11 -33z m-42 -132 c-4 -17 -9 -30 -11 -27 -3 2 -2 19 2 36 4 17 9 30 11 27 2
-2 1 -18 -2 -36z m-17 -108 c-2 -16 -4 -5 -4 22 0 28 2 40 4 28 2 -13 2 -35 0
-50z m-10 -85 c-2 -13 -4 -5 -4 17 -1 22 1 32 4 23 2 -10 2 -28 0 -40z m10
-100 c-2 -13 -4 -3 -4 22 0 25 2 35 4 23 2 -13 2 -33 0 -45z m10 -60 c-3 -8
-6 -5 -6 6 -1 11 2 17 5 13 3 -3 4 -12 1 -19z m22 -68 c0 -9 -4 -8 -9 5 -5 11
-9 27 -9 35 0 9 4 8 9 -5 5 -11 9 -27 9 -35z m50 -117 c17 -35 29 -63 26 -63
-5 0 -65 116 -65 126 0 12 6 2 39 -63z m61 -103 c12 -16 19 -30 16 -30 -2 0
-14 14 -26 30 -12 17 -19 30 -16 30 2 0 14 -13 26 -30z"/>
</g>
</svg>
